<mxfile host="app.diagrams.net" modified="2024-04-22T13:52:53.554Z" agent="Mozilla/5.0 (Windows NT 10.0; Win64; x64) AppleWebKit/537.36 (KHTML, like Gecko) Chrome/123.0.0.0 Safari/537.36" etag="xTjY9aBV-jr-jUCqXdcV" version="24.2.5" type="device" pages="2">
  <diagram name="Pagina-1" id="DlHbQXeaWKlzbIvtGdsE">
    <mxGraphModel dx="1507" dy="543" grid="1" gridSize="10" guides="1" tooltips="1" connect="1" arrows="1" fold="1" page="1" pageScale="1" pageWidth="1500" pageHeight="500" math="0" shadow="0">
      <root>
        <mxCell id="0" />
        <mxCell id="1" parent="0" />
        <mxCell id="UgftJ3nfr26CKlYY0sbi-57" value="" style="rounded=1;whiteSpace=wrap;html=1;fillColor=#f5f5f5;strokeWidth=2;fontColor=#333333;strokeColor=default;" vertex="1" parent="1">
          <mxGeometry x="1350" y="180" width="190" height="87.5" as="geometry" />
        </mxCell>
        <mxCell id="UgftJ3nfr26CKlYY0sbi-19" value="" style="rounded=1;whiteSpace=wrap;html=1;rotation=90;fillColor=#f5f5f5;fontColor=#333333;strokeColor=default;strokeWidth=2;" vertex="1" parent="1">
          <mxGeometry x="1156" y="225" width="70" height="15" as="geometry" />
        </mxCell>
        <mxCell id="UgftJ3nfr26CKlYY0sbi-45" style="edgeStyle=orthogonalEdgeStyle;rounded=0;orthogonalLoop=1;jettySize=auto;html=1;exitX=0.25;exitY=0;exitDx=0;exitDy=0;entryX=1;entryY=0.75;entryDx=0;entryDy=0;" edge="1" parent="1" source="UgftJ3nfr26CKlYY0sbi-24" target="UgftJ3nfr26CKlYY0sbi-42">
          <mxGeometry relative="1" as="geometry">
            <Array as="points">
              <mxPoint x="1251" y="188" />
              <mxPoint x="1251" y="150" />
            </Array>
          </mxGeometry>
        </mxCell>
        <mxCell id="UgftJ3nfr26CKlYY0sbi-24" value="Recurrence" style="rounded=1;whiteSpace=wrap;html=1;fillColor=#f8cecc;strokeColor=default;strokeWidth=2;rotation=90;" vertex="1" parent="1">
          <mxGeometry x="1170" y="200" width="107.5" height="30" as="geometry" />
        </mxCell>
        <mxCell id="UgftJ3nfr26CKlYY0sbi-44" style="edgeStyle=orthogonalEdgeStyle;rounded=0;orthogonalLoop=1;jettySize=auto;html=1;exitX=1;exitY=0.5;exitDx=0;exitDy=0;entryX=0.25;entryY=1;entryDx=0;entryDy=0;" edge="1" parent="1" source="UgftJ3nfr26CKlYY0sbi-25" target="UgftJ3nfr26CKlYY0sbi-24">
          <mxGeometry relative="1" as="geometry">
            <Array as="points">
              <mxPoint x="1191" y="188" />
            </Array>
          </mxGeometry>
        </mxCell>
        <mxCell id="UgftJ3nfr26CKlYY0sbi-25" value="" style="rounded=1;whiteSpace=wrap;html=1;rotation=90;fillColor=#fff2cc;strokeColor=default;strokeWidth=2;" vertex="1" parent="1">
          <mxGeometry x="1156" y="107.5" width="70" height="15" as="geometry" />
        </mxCell>
        <mxCell id="UgftJ3nfr26CKlYY0sbi-26" value="" style="rounded=1;whiteSpace=wrap;html=1;rotation=90;fillColor=#fff2cc;strokeColor=default;strokeWidth=2;" vertex="1" parent="1">
          <mxGeometry x="1290" y="107.5" width="70" height="15" as="geometry" />
        </mxCell>
        <mxCell id="UgftJ3nfr26CKlYY0sbi-40" value="" style="rounded=1;whiteSpace=wrap;html=1;rotation=90;fillColor=#f5f5f5;fontColor=#333333;strokeColor=default;strokeWidth=2;" vertex="1" parent="1">
          <mxGeometry x="1220" y="225" width="70" height="15" as="geometry" />
        </mxCell>
        <mxCell id="UgftJ3nfr26CKlYY0sbi-47" style="edgeStyle=orthogonalEdgeStyle;rounded=0;orthogonalLoop=1;jettySize=auto;html=1;exitX=0.25;exitY=0;exitDx=0;exitDy=0;entryX=1;entryY=0.5;entryDx=0;entryDy=0;" edge="1" parent="1" source="UgftJ3nfr26CKlYY0sbi-41" target="UgftJ3nfr26CKlYY0sbi-26">
          <mxGeometry relative="1" as="geometry" />
        </mxCell>
        <mxCell id="UgftJ3nfr26CKlYY0sbi-41" value="Recurrence" style="rounded=1;whiteSpace=wrap;html=1;fillColor=#f8cecc;strokeColor=default;strokeWidth=2;rotation=90;" vertex="1" parent="1">
          <mxGeometry x="1234" y="200" width="107.5" height="30" as="geometry" />
        </mxCell>
        <mxCell id="UgftJ3nfr26CKlYY0sbi-46" style="edgeStyle=orthogonalEdgeStyle;rounded=0;orthogonalLoop=1;jettySize=auto;html=1;exitX=1;exitY=0.25;exitDx=0;exitDy=0;entryX=0.25;entryY=1;entryDx=0;entryDy=0;" edge="1" parent="1" source="UgftJ3nfr26CKlYY0sbi-42" target="UgftJ3nfr26CKlYY0sbi-41">
          <mxGeometry relative="1" as="geometry">
            <Array as="points">
              <mxPoint x="1259" y="170" />
              <mxPoint x="1259" y="188" />
            </Array>
          </mxGeometry>
        </mxCell>
        <mxCell id="UgftJ3nfr26CKlYY0sbi-42" value="" style="rounded=1;whiteSpace=wrap;html=1;rotation=90;fillColor=#fff2cc;strokeColor=default;strokeWidth=2;" vertex="1" parent="1">
          <mxGeometry x="1220" y="107.5" width="70" height="15" as="geometry" />
        </mxCell>
        <mxCell id="UgftJ3nfr26CKlYY0sbi-48" value="Readout" style="rounded=1;whiteSpace=wrap;html=1;fillColor=#f8cecc;strokeColor=default;strokeWidth=2;" vertex="1" parent="1">
          <mxGeometry x="1280" y="40" width="115" height="30" as="geometry" />
        </mxCell>
        <mxCell id="UgftJ3nfr26CKlYY0sbi-49" value="" style="rounded=1;whiteSpace=wrap;html=1;rotation=90;fillColor=#dae8fc;strokeColor=default;strokeWidth=2;" vertex="1" parent="1">
          <mxGeometry x="1314" y="107.5" width="70" height="15" as="geometry" />
        </mxCell>
        <mxCell id="UgftJ3nfr26CKlYY0sbi-50" value="" style="rounded=1;whiteSpace=wrap;html=1;rotation=0;fillColor=#f5f5f5;fontColor=#333333;strokeColor=default;strokeWidth=2;" vertex="1" parent="1">
          <mxGeometry x="1360" y="193" width="70" height="15" as="geometry" />
        </mxCell>
        <mxCell id="UgftJ3nfr26CKlYY0sbi-51" value="" style="rounded=1;whiteSpace=wrap;html=1;rotation=0;fillColor=#dae8fc;strokeColor=default;strokeWidth=2;" vertex="1" parent="1">
          <mxGeometry x="1360" y="215.5" width="70" height="15" as="geometry" />
        </mxCell>
        <mxCell id="UgftJ3nfr26CKlYY0sbi-52" value="" style="rounded=1;whiteSpace=wrap;html=1;rotation=0;fillColor=#fff2cc;strokeColor=default;strokeWidth=2;" vertex="1" parent="1">
          <mxGeometry x="1360" y="238" width="70" height="15" as="geometry" />
        </mxCell>
        <mxCell id="UgftJ3nfr26CKlYY0sbi-54" value="Previous token" style="text;html=1;align=left;verticalAlign=middle;whiteSpace=wrap;rounded=0;" vertex="1" parent="1">
          <mxGeometry x="1440" y="185.5" width="90" height="30" as="geometry" />
        </mxCell>
        <mxCell id="UgftJ3nfr26CKlYY0sbi-55" value="Current token" style="text;html=1;align=left;verticalAlign=middle;whiteSpace=wrap;rounded=0;" vertex="1" parent="1">
          <mxGeometry x="1440" y="208" width="90" height="30" as="geometry" />
        </mxCell>
        <mxCell id="UgftJ3nfr26CKlYY0sbi-56" value="Memory (state)" style="text;html=1;align=left;verticalAlign=middle;whiteSpace=wrap;rounded=0;" vertex="1" parent="1">
          <mxGeometry x="1440" y="230.5" width="90" height="30" as="geometry" />
        </mxCell>
      </root>
    </mxGraphModel>
  </diagram>
  <diagram id="QN6jp8XvFxMXEia05JfJ" name="Pagina-2">
    <mxGraphModel dx="723" dy="261" grid="1" gridSize="10" guides="1" tooltips="1" connect="1" arrows="1" fold="1" page="1" pageScale="1" pageWidth="1500" pageHeight="500" math="0" shadow="0">
      <root>
        <mxCell id="0" />
        <mxCell id="1" parent="0" />
        <mxCell id="6n72LbGJO-qIJHDkmhBX-1" value="" style="rounded=1;whiteSpace=wrap;html=1;rotation=90;fillColor=#f5f5f5;fontColor=#333333;strokeColor=default;strokeWidth=2;" vertex="1" parent="1">
          <mxGeometry x="265" y="331" width="70" height="15" as="geometry" />
        </mxCell>
        <mxCell id="6n72LbGJO-qIJHDkmhBX-2" value="Recurrence" style="rounded=1;whiteSpace=wrap;html=1;fillColor=#f8cecc;strokeColor=default;strokeWidth=2;rotation=90;" vertex="1" parent="1">
          <mxGeometry x="273.75" y="286.25" width="160" height="30" as="geometry" />
        </mxCell>
        <mxCell id="6n72LbGJO-qIJHDkmhBX-3" value="" style="rounded=1;whiteSpace=wrap;html=1;rotation=90;fillColor=#fff2cc;strokeColor=default;strokeWidth=2;" vertex="1" parent="1">
          <mxGeometry x="265" y="250" width="70" height="15" as="geometry" />
        </mxCell>
        <mxCell id="6n72LbGJO-qIJHDkmhBX-12" value="" style="rounded=1;whiteSpace=wrap;html=1;rotation=90;fillColor=#fff2cc;strokeColor=default;strokeWidth=2;" vertex="1" parent="1">
          <mxGeometry x="373" y="250" width="70" height="15" as="geometry" />
        </mxCell>
        <mxCell id="6n72LbGJO-qIJHDkmhBX-16" value="" style="endArrow=classic;html=1;rounded=0;" edge="1" parent="1">
          <mxGeometry width="50" height="50" relative="1" as="geometry">
            <mxPoint x="308" y="339.3" as="sourcePoint" />
            <mxPoint x="338" y="339.3" as="targetPoint" />
          </mxGeometry>
        </mxCell>
        <mxCell id="6n72LbGJO-qIJHDkmhBX-17" value="" style="endArrow=classic;html=1;rounded=0;" edge="1" parent="1">
          <mxGeometry width="50" height="50" relative="1" as="geometry">
            <mxPoint x="308" y="257.3" as="sourcePoint" />
            <mxPoint x="338" y="257.3" as="targetPoint" />
          </mxGeometry>
        </mxCell>
        <mxCell id="6n72LbGJO-qIJHDkmhBX-18" value="" style="endArrow=classic;html=1;rounded=0;" edge="1" parent="1">
          <mxGeometry width="50" height="50" relative="1" as="geometry">
            <mxPoint x="369" y="257.33" as="sourcePoint" />
            <mxPoint x="399" y="257.33" as="targetPoint" />
          </mxGeometry>
        </mxCell>
        <mxCell id="6n72LbGJO-qIJHDkmhBX-19" value="" style="rounded=1;whiteSpace=wrap;html=1;rotation=90;fillColor=#f5f5f5;fontColor=#333333;strokeColor=default;strokeWidth=2;" vertex="1" parent="1">
          <mxGeometry x="373" y="330.6" width="70" height="15" as="geometry" />
        </mxCell>
        <mxCell id="6n72LbGJO-qIJHDkmhBX-20" value="Recurrence" style="rounded=1;whiteSpace=wrap;html=1;fillColor=#f8cecc;strokeColor=default;strokeWidth=2;rotation=90;" vertex="1" parent="1">
          <mxGeometry x="381.75" y="285.85" width="160" height="30" as="geometry" />
        </mxCell>
        <mxCell id="6n72LbGJO-qIJHDkmhBX-21" value="" style="endArrow=classic;html=1;rounded=0;" edge="1" parent="1">
          <mxGeometry width="50" height="50" relative="1" as="geometry">
            <mxPoint x="416" y="338.90000000000003" as="sourcePoint" />
            <mxPoint x="446" y="338.90000000000003" as="targetPoint" />
          </mxGeometry>
        </mxCell>
        <mxCell id="6n72LbGJO-qIJHDkmhBX-22" value="" style="endArrow=classic;html=1;rounded=0;" edge="1" parent="1">
          <mxGeometry width="50" height="50" relative="1" as="geometry">
            <mxPoint x="416" y="256.90000000000003" as="sourcePoint" />
            <mxPoint x="446" y="256.90000000000003" as="targetPoint" />
          </mxGeometry>
        </mxCell>
        <mxCell id="6n72LbGJO-qIJHDkmhBX-27" value="" style="rounded=1;whiteSpace=wrap;html=1;rotation=90;fillColor=#fff2cc;strokeColor=default;strokeWidth=2;" vertex="1" parent="1">
          <mxGeometry x="482" y="250" width="70" height="15" as="geometry" />
        </mxCell>
        <mxCell id="6n72LbGJO-qIJHDkmhBX-28" value="" style="endArrow=classic;html=1;rounded=0;" edge="1" parent="1">
          <mxGeometry width="50" height="50" relative="1" as="geometry">
            <mxPoint x="478" y="257.33" as="sourcePoint" />
            <mxPoint x="508" y="257.33" as="targetPoint" />
          </mxGeometry>
        </mxCell>
        <mxCell id="6n72LbGJO-qIJHDkmhBX-29" value="" style="rounded=1;whiteSpace=wrap;html=1;rotation=90;fillColor=#f5f5f5;fontColor=#333333;strokeColor=default;strokeWidth=2;" vertex="1" parent="1">
          <mxGeometry x="482" y="330.6" width="70" height="15" as="geometry" />
        </mxCell>
        <mxCell id="6n72LbGJO-qIJHDkmhBX-30" value="Recurrence" style="rounded=1;whiteSpace=wrap;html=1;fillColor=#f8cecc;strokeColor=default;strokeWidth=2;rotation=90;" vertex="1" parent="1">
          <mxGeometry x="490.75" y="285.85" width="160" height="30" as="geometry" />
        </mxCell>
        <mxCell id="6n72LbGJO-qIJHDkmhBX-31" value="" style="endArrow=classic;html=1;rounded=0;" edge="1" parent="1">
          <mxGeometry width="50" height="50" relative="1" as="geometry">
            <mxPoint x="525" y="338.90000000000003" as="sourcePoint" />
            <mxPoint x="555" y="338.90000000000003" as="targetPoint" />
          </mxGeometry>
        </mxCell>
        <mxCell id="6n72LbGJO-qIJHDkmhBX-32" value="" style="endArrow=classic;html=1;rounded=0;" edge="1" parent="1">
          <mxGeometry width="50" height="50" relative="1" as="geometry">
            <mxPoint x="525" y="256.90000000000003" as="sourcePoint" />
            <mxPoint x="555" y="256.90000000000003" as="targetPoint" />
          </mxGeometry>
        </mxCell>
        <mxCell id="6n72LbGJO-qIJHDkmhBX-41" style="edgeStyle=orthogonalEdgeStyle;rounded=0;orthogonalLoop=1;jettySize=auto;html=1;exitX=0.75;exitY=1;exitDx=0;exitDy=0;fillColor=#f8cecc;strokeColor=#b85450;" edge="1" parent="1" source="6n72LbGJO-qIJHDkmhBX-33">
          <mxGeometry relative="1" as="geometry">
            <mxPoint x="587" y="275.05747126436785" as="targetPoint" />
          </mxGeometry>
        </mxCell>
        <mxCell id="6n72LbGJO-qIJHDkmhBX-33" value="" style="rounded=1;whiteSpace=wrap;html=1;rotation=90;fillColor=#fff2cc;strokeColor=default;strokeWidth=2;" vertex="1" parent="1">
          <mxGeometry x="591" y="250" width="70" height="15" as="geometry" />
        </mxCell>
        <mxCell id="6n72LbGJO-qIJHDkmhBX-34" value="" style="endArrow=classic;html=1;rounded=0;" edge="1" parent="1">
          <mxGeometry width="50" height="50" relative="1" as="geometry">
            <mxPoint x="587" y="257.33" as="sourcePoint" />
            <mxPoint x="617" y="257.33" as="targetPoint" />
          </mxGeometry>
        </mxCell>
        <mxCell id="6n72LbGJO-qIJHDkmhBX-40" style="edgeStyle=orthogonalEdgeStyle;rounded=0;orthogonalLoop=1;jettySize=auto;html=1;exitX=0.75;exitY=1;exitDx=0;exitDy=0;entryX=0.749;entryY=-0.123;entryDx=0;entryDy=0;fillColor=#f8cecc;strokeColor=#b85450;entryPerimeter=0;" edge="1" parent="1" source="6n72LbGJO-qIJHDkmhBX-35" target="6n72LbGJO-qIJHDkmhBX-33">
          <mxGeometry relative="1" as="geometry">
            <Array as="points">
              <mxPoint x="651" y="275" />
            </Array>
          </mxGeometry>
        </mxCell>
        <mxCell id="6n72LbGJO-qIJHDkmhBX-35" value="Readout" style="rounded=1;whiteSpace=wrap;html=1;fillColor=#f8cecc;strokeColor=default;strokeWidth=2;rotation=0;" vertex="1" parent="1">
          <mxGeometry x="576" y="170" width="100" height="30" as="geometry" />
        </mxCell>
        <mxCell id="6n72LbGJO-qIJHDkmhBX-36" value="" style="rounded=1;whiteSpace=wrap;html=1;rotation=0;fillColor=#f5f5f5;fontColor=#333333;strokeColor=default;strokeWidth=2;" vertex="1" parent="1">
          <mxGeometry x="591" y="130.00000000000003" width="70" height="15" as="geometry" />
        </mxCell>
        <mxCell id="6n72LbGJO-qIJHDkmhBX-37" value="" style="endArrow=classic;html=1;rounded=0;entryX=0.5;entryY=1;entryDx=0;entryDy=0;exitX=0;exitY=0.5;exitDx=0;exitDy=0;" edge="1" parent="1" source="6n72LbGJO-qIJHDkmhBX-33" target="6n72LbGJO-qIJHDkmhBX-35">
          <mxGeometry width="50" height="50" relative="1" as="geometry">
            <mxPoint x="597" y="267.33" as="sourcePoint" />
            <mxPoint x="627" y="267.33" as="targetPoint" />
          </mxGeometry>
        </mxCell>
        <mxCell id="6n72LbGJO-qIJHDkmhBX-38" value="" style="endArrow=classic;html=1;rounded=0;entryX=0.5;entryY=1;entryDx=0;entryDy=0;exitX=0;exitY=0.5;exitDx=0;exitDy=0;" edge="1" parent="1">
          <mxGeometry width="50" height="50" relative="1" as="geometry">
            <mxPoint x="625.86" y="170" as="sourcePoint" />
            <mxPoint x="625.86" y="147" as="targetPoint" />
          </mxGeometry>
        </mxCell>
        <mxCell id="6n72LbGJO-qIJHDkmhBX-39" value="" style="endArrow=classic;html=1;rounded=0;entryX=0.5;entryY=1;entryDx=0;entryDy=0;exitX=0;exitY=0.5;exitDx=0;exitDy=0;fillColor=#f8cecc;strokeColor=#b85450;" edge="1" parent="1">
          <mxGeometry width="50" height="50" relative="1" as="geometry">
            <mxPoint x="650.75" y="147" as="sourcePoint" />
            <mxPoint x="650.75" y="170" as="targetPoint" />
          </mxGeometry>
        </mxCell>
        <mxCell id="6n72LbGJO-qIJHDkmhBX-42" style="edgeStyle=orthogonalEdgeStyle;rounded=0;orthogonalLoop=1;jettySize=auto;html=1;exitX=0.75;exitY=1;exitDx=0;exitDy=0;fillColor=#f8cecc;strokeColor=#b85450;" edge="1" parent="1">
          <mxGeometry relative="1" as="geometry">
            <mxPoint x="525" y="275.05747126436785" as="targetPoint" />
            <mxPoint x="554" y="276" as="sourcePoint" />
          </mxGeometry>
        </mxCell>
        <mxCell id="6n72LbGJO-qIJHDkmhBX-43" style="edgeStyle=orthogonalEdgeStyle;rounded=0;orthogonalLoop=1;jettySize=auto;html=1;exitX=0.75;exitY=1;exitDx=0;exitDy=0;fillColor=#f8cecc;strokeColor=#b85450;" edge="1" parent="1">
          <mxGeometry relative="1" as="geometry">
            <mxPoint x="478.01" y="274.99747126436785" as="targetPoint" />
            <mxPoint x="508" y="275.94" as="sourcePoint" />
          </mxGeometry>
        </mxCell>
        <mxCell id="6n72LbGJO-qIJHDkmhBX-44" style="edgeStyle=orthogonalEdgeStyle;rounded=0;orthogonalLoop=1;jettySize=auto;html=1;exitX=0.75;exitY=1;exitDx=0;exitDy=0;fillColor=#f8cecc;strokeColor=#b85450;" edge="1" parent="1">
          <mxGeometry relative="1" as="geometry">
            <mxPoint x="417.02" y="274.99747126436785" as="targetPoint" />
            <mxPoint x="446.02" y="275.94" as="sourcePoint" />
          </mxGeometry>
        </mxCell>
        <mxCell id="6n72LbGJO-qIJHDkmhBX-45" style="edgeStyle=orthogonalEdgeStyle;rounded=0;orthogonalLoop=1;jettySize=auto;html=1;exitX=0.75;exitY=1;exitDx=0;exitDy=0;fillColor=#f8cecc;strokeColor=#b85450;" edge="1" parent="1">
          <mxGeometry relative="1" as="geometry">
            <mxPoint x="370.02" y="274.99747126436785" as="targetPoint" />
            <mxPoint x="399.02" y="275.94" as="sourcePoint" />
          </mxGeometry>
        </mxCell>
        <mxCell id="6n72LbGJO-qIJHDkmhBX-46" style="edgeStyle=orthogonalEdgeStyle;rounded=0;orthogonalLoop=1;jettySize=auto;html=1;exitX=0.75;exitY=1;exitDx=0;exitDy=0;fillColor=#f8cecc;strokeColor=#b85450;" edge="1" parent="1">
          <mxGeometry relative="1" as="geometry">
            <mxPoint x="308.02" y="274.99747126436785" as="targetPoint" />
            <mxPoint x="337.02" y="275.94" as="sourcePoint" />
          </mxGeometry>
        </mxCell>
      </root>
    </mxGraphModel>
  </diagram>
</mxfile>
